<svg width="24" height="24" viewBox="0 0 24 24" fill="currentColor" xmlns="http://www.w3.org/2000/svg">
<mask id="mask0_2660_19608" style="mask-type:alpha" maskUnits="userSpaceOnUse" x="0" y="0" width="24" height="24">
<rect width="24" height="24" fill="currentColor"/>
</mask>
<g mask="url(#mask0_2660_19608)">
<path d="M3.41815 8.74641L3.41881 8.74513C3.5316 8.52751 3.68408 8.35278 3.88246 8.21276L3.88249 8.21279L3.88895 8.20813L11.0092 3.06872C11.1679 2.95815 11.3269 2.87976 11.4869 2.82844C11.648 2.77675 11.818 2.75 12 2.75C12.182 2.75 12.352 2.77675 12.5131 2.82844C12.673 2.87975 12.832 2.95814 12.9908 3.0687L20.1111 8.20813L20.111 8.20816L20.1175 8.21276C20.316 8.35283 20.469 8.52776 20.5827 8.7457C20.6955 8.96355 20.75 9.18797 20.75 9.42857V19.7143C20.75 20.1329 20.6051 20.4779 20.2829 20.7887C19.959 21.0997 19.5868 21.25 19.125 21.25H15.125V14V13.25H14.375H9.625H8.875V14V21.25H4.875C4.41307 21.25 4.04133 21.0996 3.71833 20.7888C3.39513 20.4777 3.25 20.1327 3.25 19.7143V9.42857C3.25 9.18837 3.30472 8.96423 3.41815 8.74641Z" fill="currentColor" stroke-width="1.5"/>
</g>
</svg>
