<svg width="100" height="100" viewBox="0 0 100 100" fill="currentColor" xmlns="http://www.w3.org/2000/svg">
<path d="M19.1074 9C22.1348 10.8555 23.0137 13.1993 23.0137 17.4473V81.2168C23.0137 86.7344 25.9922 89.9571 30.875 89.9571C35.416 89.9571 38.1504 86.8809 38.1504 81.5586V71.0118C38.1504 65.3477 40.5918 62.4668 46.3535 62.4668H83.1699V21.4512C83.1699 13.1504 79.0684 9 70.8653 9H19.1074ZM41.0801 91.1289H78.8731C86.3438 91.1289 91.3731 85.9532 91.3731 78.1895V72.4278C91.3731 69.8399 89.6153 68.1797 87.0274 68.1797H48.209C45.5723 68.1797 43.8145 69.8399 43.8145 72.4278V78.7754C43.8145 83.0235 43.7168 87.1739 41.0801 91.1289ZM38.541 29.5567C38.541 28.0918 39.6641 26.9688 41.2266 26.9688H66.3731C67.8867 26.9688 69.0098 28.0918 69.0098 29.5567C69.0098 31.0704 67.8867 32.2422 66.3731 32.2422H41.2266C39.6641 32.2422 38.541 31.0704 38.541 29.5567ZM9 27.9454C9 30.4844 10.7578 32.1934 13.3457 32.1934H17.3008V19.4981C17.3008 17.2032 15.3965 15.3965 13.1504 15.3965C10.9043 15.3965 9 17.2032 9 19.4981V27.9454ZM38.541 42.9356C38.541 41.4219 39.6641 40.25 41.2266 40.25H54.5078C56.0215 40.25 57.1446 41.4219 57.1446 42.9356C57.1446 44.4004 56.0215 45.5235 54.5078 45.5235H41.2266C39.6641 45.5235 38.541 44.4004 38.541 42.9356Z" fill="currentColor"/>
</svg>
