<svg width="64" height="64" viewBox="0 0 64 64" fill="none" xmlns="http://www.w3.org/2000/svg">
<path d="M31.9801 64C49.4563 64 64 49.487 64 32C64 14.513 49.4167 0 31.9405 0C14.504 0 0 14.513 0 32C0 49.487 14.5437 64 31.9801 64Z" fill="#EDEDED"/>
<path d="M31.9806 58.6463C25.2041 58.6463 18.0711 55.9103 13.2363 50.8347C16.5651 45.6402 23.6586 42.6662 31.9806 42.6662C40.1837 42.6662 47.3564 45.6005 50.7249 50.8347C45.8902 55.9103 38.757 58.6463 31.9806 58.6463ZM31.9806 37.4319C25.9967 37.3527 21.2809 32.396 21.2809 25.6946C21.2413 19.3899 25.9967 14.1953 31.9806 14.1953C37.9645 14.1953 42.6803 19.3899 42.6803 25.6946C42.6803 32.396 37.9645 37.5113 31.9806 37.4319Z" fill="white"/>
</svg>
